<?xml version="1.0" encoding="us-ascii" standalone="no"?><svg xmlns="http://www.w3.org/2000/svg" xmlns:xlink="http://www.w3.org/1999/xlink" contentStyleType="text/css" height="1819px" preserveAspectRatio="none" style="width:1040px;height:1819px;background:#FFFFFF;" version="1.1" viewBox="0 0 1040 1819" width="1040px" zoomAndPan="magnify"><defs/><g><!--class Usuario--><g id="elem_Usuario"><rect codeLine="181" fill="#F1F1F1" height="417.7969" id="Usuario" rx="2.5" ry="2.5" style="stroke:#181818;stroke-width:0.5;" width="192" x="216.5" y="7"/><ellipse cx="284.25" cy="23" fill="#ADD1B2" rx="11" ry="11" style="stroke:#181818;stroke-width:1.0;"/><path d="M287.0156,18.875 Q287.1719,18.6563 287.3594,18.5469 Q287.5469,18.4375 287.7656,18.4375 Q288.1406,18.4375 288.375,18.6953 Q288.6094,18.9531 288.6094,19.5625 L288.6094,21.0156 Q288.6094,21.625 288.375,21.8906 Q288.1406,22.1563 287.7656,22.1563 Q287.4219,22.1563 287.2188,21.9531 Q287.0156,21.7656 286.9063,21.25 Q286.8594,20.8906 286.6719,20.7031 Q286.3438,20.3281 285.7344,20.1094 Q285.125,19.8906 284.5,19.8906 Q283.7344,19.8906 283.1016,20.2188 Q282.4688,20.5469 281.9766,21.2969 Q281.4844,22.0469 281.4844,23.0781 L281.4844,24.1719 Q281.4844,25.4063 282.375,26.2266 Q283.2656,27.0469 284.8594,27.0469 Q285.7969,27.0469 286.4531,26.7969 Q286.8438,26.6406 287.2656,26.2031 Q287.5313,25.9375 287.6797,25.8594 Q287.8281,25.7813 288.0313,25.7813 Q288.3594,25.7813 288.6172,26.0391 Q288.875,26.2969 288.875,26.6406 Q288.875,26.9844 288.5313,27.3906 Q288.0313,27.9688 287.2344,28.2969 Q286.1563,28.75 284.8594,28.75 Q283.3438,28.75 282.1406,28.125 Q281.1563,27.625 280.4688,26.5547 Q279.7813,25.4844 279.7813,24.2031 L279.7813,23.0469 Q279.7813,21.7188 280.3984,20.5703 Q281.0156,19.4219 282.1094,18.8047 Q283.2031,18.1875 284.4375,18.1875 Q285.1719,18.1875 285.8203,18.3516 Q286.4688,18.5156 287.0156,18.875 Z " fill="#000000"/><text fill="#000000" font-family="sans-serif" font-size="14" lengthAdjust="spacing" textLength="48" x="304.75" y="28.7285">Usuario</text><line style="stroke:#181818;stroke-width:0.5;" x1="217.5" x2="407.5" y1="39" y2="39"/><text fill="#000000" font-family="sans-serif" font-size="14" lengthAdjust="spacing" textLength="39" x="222.5" y="57.5332">-id: int</text><text fill="#000000" font-family="sans-serif" font-size="14" lengthAdjust="spacing" textLength="98" x="222.5" y="75.1426">-nombre: String</text><text fill="#000000" font-family="sans-serif" font-size="14" lengthAdjust="spacing" textLength="83" x="222.5" y="92.752">-email: String</text><text fill="#000000" font-family="sans-serif" font-size="14" lengthAdjust="spacing" textLength="121" x="222.5" y="110.3613">-contrase&#241;a: String</text><text fill="#000000" font-family="sans-serif" font-size="14" lengthAdjust="spacing" textLength="121" x="222.5" y="127.9707">-tipoUsuario: String</text><text fill="#000000" font-family="sans-serif" font-size="14" lengthAdjust="spacing" textLength="39" x="222.5" y="145.5801">-id: int</text><text fill="#000000" font-family="sans-serif" font-size="14" lengthAdjust="spacing" textLength="98" x="222.5" y="163.1895">-nombre: String</text><text fill="#000000" font-family="sans-serif" font-size="14" lengthAdjust="spacing" textLength="39" x="222.5" y="180.7988">-id: int</text><text fill="#000000" font-family="sans-serif" font-size="14" lengthAdjust="spacing" textLength="98" x="222.5" y="198.4082">-nombre: String</text><text fill="#000000" font-family="sans-serif" font-size="14" lengthAdjust="spacing" textLength="39" x="222.5" y="216.0176">-id: int</text><text fill="#000000" font-family="sans-serif" font-size="14" lengthAdjust="spacing" textLength="98" x="222.5" y="233.627">-nombre: String</text><text fill="#000000" font-family="sans-serif" font-size="14" lengthAdjust="spacing" textLength="39" x="222.5" y="251.2363">-id: int</text><text fill="#000000" font-family="sans-serif" font-size="14" lengthAdjust="spacing" textLength="98" x="222.5" y="268.8457">-nombre: String</text><line style="stroke:#181818;stroke-width:0.5;" x1="217.5" x2="407.5" y1="275.9219" y2="275.9219"/><text fill="#000000" font-family="sans-serif" font-size="14" lengthAdjust="spacing" textLength="157" x="222.5" y="294.4551">+iniciarSesion(): boolean</text><text fill="#000000" font-family="sans-serif" font-size="14" lengthAdjust="spacing" textLength="133" x="222.5" y="312.0645">+cerrarSesion(): void</text><text fill="#000000" font-family="sans-serif" font-size="14" lengthAdjust="spacing" textLength="176" x="222.5" y="329.6738">+controlarDispositivo(): void</text><text fill="#000000" font-family="sans-serif" font-size="14" lengthAdjust="spacing" textLength="180" x="222.5" y="347.2832">+visualizarDashboard(): void</text><text fill="#000000" font-family="sans-serif" font-size="14" lengthAdjust="spacing" textLength="176" x="222.5" y="364.8926">+controlarDispositivo(): void</text><text fill="#000000" font-family="sans-serif" font-size="14" lengthAdjust="spacing" textLength="180" x="222.5" y="382.502">+crearAutomatizacion(): void</text><text fill="#000000" font-family="sans-serif" font-size="14" lengthAdjust="spacing" textLength="168" x="222.5" y="400.1113">+consultarReportes(): void</text><text fill="#000000" font-family="sans-serif" font-size="14" lengthAdjust="spacing" textLength="163" x="222.5" y="417.7207">+recibirNotificacion(): void</text></g><!--class Administrador--><g id="elem_Administrador"><rect codeLine="17" fill="#F1F1F1" height="118.4375" id="Administrador" rx="2.5" ry="2.5" style="stroke:#181818;stroke-width:0.5;" width="180" x="79.5" y="494"/><ellipse cx="121.95" cy="510" fill="#ADD1B2" rx="11" ry="11" style="stroke:#181818;stroke-width:1.0;"/><path d="M124.7156,505.875 Q124.8719,505.6563 125.0594,505.5469 Q125.2469,505.4375 125.4656,505.4375 Q125.8406,505.4375 126.075,505.6953 Q126.3094,505.9531 126.3094,506.5625 L126.3094,508.0156 Q126.3094,508.625 126.075,508.8906 Q125.8406,509.1563 125.4656,509.1563 Q125.1219,509.1563 124.9188,508.9531 Q124.7156,508.7656 124.6063,508.25 Q124.5594,507.8906 124.3719,507.7031 Q124.0438,507.3281 123.4344,507.1094 Q122.825,506.8906 122.2,506.8906 Q121.4344,506.8906 120.8016,507.2188 Q120.1688,507.5469 119.6766,508.2969 Q119.1844,509.0469 119.1844,510.0781 L119.1844,511.1719 Q119.1844,512.4063 120.075,513.2266 Q120.9656,514.0469 122.5594,514.0469 Q123.4969,514.0469 124.1531,513.7969 Q124.5438,513.6406 124.9656,513.2031 Q125.2313,512.9375 125.3797,512.8594 Q125.5281,512.7813 125.7313,512.7813 Q126.0594,512.7813 126.3172,513.0391 Q126.575,513.2969 126.575,513.6406 Q126.575,513.9844 126.2313,514.3906 Q125.7313,514.9688 124.9344,515.2969 Q123.8563,515.75 122.5594,515.75 Q121.0438,515.75 119.8406,515.125 Q118.8563,514.625 118.1688,513.5547 Q117.4813,512.4844 117.4813,511.2031 L117.4813,510.0469 Q117.4813,508.7188 118.0984,507.5703 Q118.7156,506.4219 119.8094,505.8047 Q120.9031,505.1875 122.1375,505.1875 Q122.8719,505.1875 123.5203,505.3516 Q124.1688,505.5156 124.7156,505.875 Z " fill="#000000"/><text fill="#000000" font-family="sans-serif" font-size="14" lengthAdjust="spacing" textLength="87" x="142.05" y="515.7285">Administrador</text><line style="stroke:#181818;stroke-width:0.5;" x1="80.5" x2="258.5" y1="526" y2="526"/><text fill="#000000" font-family="sans-serif" font-size="14" lengthAdjust="spacing" textLength="103" x="85.5" y="544.5332">-nivelAcceso: int</text><line style="stroke:#181818;stroke-width:0.5;" x1="80.5" x2="258.5" y1="551.6094" y2="551.6094"/><text fill="#000000" font-family="sans-serif" font-size="14" lengthAdjust="spacing" textLength="160" x="85.5" y="570.1426">+registrarGateway(): void</text><text fill="#000000" font-family="sans-serif" font-size="14" lengthAdjust="spacing" textLength="162" x="85.5" y="587.752">+validarDispositivo(): void</text><text fill="#000000" font-family="sans-serif" font-size="14" lengthAdjust="spacing" textLength="168" x="85.5" y="605.3613">+supervisarSistema(): void</text></g><!--class Sesion--><g id="elem_Sesion"><rect codeLine="24" fill="#F1F1F1" height="136.0469" id="Sesion" rx="2.5" ry="2.5" style="stroke:#181818;stroke-width:0.5;" width="122" x="578.5" y="485"/><ellipse cx="614.65" cy="501" fill="#ADD1B2" rx="11" ry="11" style="stroke:#181818;stroke-width:1.0;"/><path d="M617.4156,496.875 Q617.5719,496.6563 617.7594,496.5469 Q617.9469,496.4375 618.1656,496.4375 Q618.5406,496.4375 618.775,496.6953 Q619.0094,496.9531 619.0094,497.5625 L619.0094,499.0156 Q619.0094,499.625 618.775,499.8906 Q618.5406,500.1563 618.1656,500.1563 Q617.8219,500.1563 617.6188,499.9531 Q617.4156,499.7656 617.3063,499.25 Q617.2594,498.8906 617.0719,498.7031 Q616.7438,498.3281 616.1344,498.1094 Q615.525,497.8906 614.9,497.8906 Q614.1344,497.8906 613.5016,498.2188 Q612.8688,498.5469 612.3766,499.2969 Q611.8844,500.0469 611.8844,501.0781 L611.8844,502.1719 Q611.8844,503.4063 612.775,504.2266 Q613.6656,505.0469 615.2594,505.0469 Q616.1969,505.0469 616.8531,504.7969 Q617.2438,504.6406 617.6656,504.2031 Q617.9313,503.9375 618.0797,503.8594 Q618.2281,503.7813 618.4313,503.7813 Q618.7594,503.7813 619.0172,504.0391 Q619.275,504.2969 619.275,504.6406 Q619.275,504.9844 618.9313,505.3906 Q618.4313,505.9688 617.6344,506.2969 Q616.5563,506.75 615.2594,506.75 Q613.7438,506.75 612.5406,506.125 Q611.5563,505.625 610.8688,504.5547 Q610.1813,503.4844 610.1813,502.2031 L610.1813,501.0469 Q610.1813,499.7188 610.7984,498.5703 Q611.4156,497.4219 612.5094,496.8047 Q613.6031,496.1875 614.8375,496.1875 Q615.5719,496.1875 616.2203,496.3516 Q616.8688,496.5156 617.4156,496.875 Z " fill="#000000"/><text fill="#000000" font-family="sans-serif" font-size="14" lengthAdjust="spacing" textLength="43" x="633.35" y="506.7285">Sesion</text><line style="stroke:#181818;stroke-width:0.5;" x1="579.5" x2="699.5" y1="517" y2="517"/><text fill="#000000" font-family="sans-serif" font-size="14" lengthAdjust="spacing" textLength="82" x="584.5" y="535.5332">-idSesion: int</text><text fill="#000000" font-family="sans-serif" font-size="14" lengthAdjust="spacing" textLength="110" x="584.5" y="553.1426">-fechaInicio: Date</text><text fill="#000000" font-family="sans-serif" font-size="14" lengthAdjust="spacing" textLength="107" x="584.5" y="570.752">-estado: boolean</text><line style="stroke:#181818;stroke-width:0.5;" x1="579.5" x2="699.5" y1="577.8281" y2="577.8281"/><text fill="#000000" font-family="sans-serif" font-size="14" lengthAdjust="spacing" textLength="89" x="584.5" y="596.3613">+iniciar(): void</text><text fill="#000000" font-family="sans-serif" font-size="14" lengthAdjust="spacing" textLength="100" x="584.5" y="613.9707">+finalizar(): void</text></g><!--class Gateway--><g id="elem_Gateway"><rect codeLine="47" fill="#F1F1F1" height="136.0469" id="Gateway" rx="2.5" ry="2.5" style="stroke:#181818;stroke-width:0.5;" width="178" x="365.5" y="485"/><ellipse cx="422.75" cy="501" fill="#ADD1B2" rx="11" ry="11" style="stroke:#181818;stroke-width:1.0;"/><path d="M425.5156,496.875 Q425.6719,496.6563 425.8594,496.5469 Q426.0469,496.4375 426.2656,496.4375 Q426.6406,496.4375 426.875,496.6953 Q427.1094,496.9531 427.1094,497.5625 L427.1094,499.0156 Q427.1094,499.625 426.875,499.8906 Q426.6406,500.1563 426.2656,500.1563 Q425.9219,500.1563 425.7188,499.9531 Q425.5156,499.7656 425.4063,499.25 Q425.3594,498.8906 425.1719,498.7031 Q424.8438,498.3281 424.2344,498.1094 Q423.625,497.8906 423,497.8906 Q422.2344,497.8906 421.6016,498.2188 Q420.9688,498.5469 420.4766,499.2969 Q419.9844,500.0469 419.9844,501.0781 L419.9844,502.1719 Q419.9844,503.4063 420.875,504.2266 Q421.7656,505.0469 423.3594,505.0469 Q424.2969,505.0469 424.9531,504.7969 Q425.3438,504.6406 425.7656,504.2031 Q426.0313,503.9375 426.1797,503.8594 Q426.3281,503.7813 426.5313,503.7813 Q426.8594,503.7813 427.1172,504.0391 Q427.375,504.2969 427.375,504.6406 Q427.375,504.9844 427.0313,505.3906 Q426.5313,505.9688 425.7344,506.2969 Q424.6563,506.75 423.3594,506.75 Q421.8438,506.75 420.6406,506.125 Q419.6563,505.625 418.9688,504.5547 Q418.2813,503.4844 418.2813,502.2031 L418.2813,501.0469 Q418.2813,499.7188 418.8984,498.5703 Q419.5156,497.4219 420.6094,496.8047 Q421.7031,496.1875 422.9375,496.1875 Q423.6719,496.1875 424.3203,496.3516 Q424.9688,496.5156 425.5156,496.875 Z " fill="#000000"/><text fill="#000000" font-family="sans-serif" font-size="14" lengthAdjust="spacing" textLength="55" x="443.25" y="506.7285">Gateway</text><line style="stroke:#181818;stroke-width:0.5;" x1="366.5" x2="542.5" y1="517" y2="517"/><text fill="#000000" font-family="sans-serif" font-size="14" lengthAdjust="spacing" textLength="94" x="371.5" y="535.5332">-idGateway: int</text><text fill="#000000" font-family="sans-serif" font-size="14" lengthAdjust="spacing" textLength="110" x="371.5" y="553.1426">-ubicacion: String</text><text fill="#000000" font-family="sans-serif" font-size="14" lengthAdjust="spacing" textLength="166" x="371.5" y="570.752">-estadoConexion: boolean</text><line style="stroke:#181818;stroke-width:0.5;" x1="366.5" x2="542.5" y1="577.8281" y2="577.8281"/><text fill="#000000" font-family="sans-serif" font-size="14" lengthAdjust="spacing" textLength="107" x="371.5" y="596.3613">+conectar(): void</text><text fill="#000000" font-family="sans-serif" font-size="14" lengthAdjust="spacing" textLength="120" x="371.5" y="613.9707">+sincronizar(): void</text></g><!--class NodoIoT--><g id="elem_NodoIoT"><rect codeLine="55" fill="#F1F1F1" height="136.0469" id="NodoIoT" rx="2.5" ry="2.5" style="stroke:#181818;stroke-width:0.5;" width="165" x="366" y="681"/><ellipse cx="417.75" cy="697" fill="#ADD1B2" rx="11" ry="11" style="stroke:#181818;stroke-width:1.0;"/><path d="M420.5156,692.875 Q420.6719,692.6563 420.8594,692.5469 Q421.0469,692.4375 421.2656,692.4375 Q421.6406,692.4375 421.875,692.6953 Q422.1094,692.9531 422.1094,693.5625 L422.1094,695.0156 Q422.1094,695.625 421.875,695.8906 Q421.6406,696.1563 421.2656,696.1563 Q420.9219,696.1563 420.7188,695.9531 Q420.5156,695.7656 420.4063,695.25 Q420.3594,694.8906 420.1719,694.7031 Q419.8438,694.3281 419.2344,694.1094 Q418.625,693.8906 418,693.8906 Q417.2344,693.8906 416.6016,694.2188 Q415.9688,694.5469 415.4766,695.2969 Q414.9844,696.0469 414.9844,697.0781 L414.9844,698.1719 Q414.9844,699.4063 415.875,700.2266 Q416.7656,701.0469 418.3594,701.0469 Q419.2969,701.0469 419.9531,700.7969 Q420.3438,700.6406 420.7656,700.2031 Q421.0313,699.9375 421.1797,699.8594 Q421.3281,699.7813 421.5313,699.7813 Q421.8594,699.7813 422.1172,700.0391 Q422.375,700.2969 422.375,700.6406 Q422.375,700.9844 422.0313,701.3906 Q421.5313,701.9688 420.7344,702.2969 Q419.6563,702.75 418.3594,702.75 Q416.8438,702.75 415.6406,702.125 Q414.6563,701.625 413.9688,700.5547 Q413.2813,699.4844 413.2813,698.2031 L413.2813,697.0469 Q413.2813,695.7188 413.8984,694.5703 Q414.5156,693.4219 415.6094,692.8047 Q416.7031,692.1875 417.9375,692.1875 Q418.6719,692.1875 419.3203,692.3516 Q419.9688,692.5156 420.5156,692.875 Z " fill="#000000"/><text fill="#000000" font-family="sans-serif" font-size="14" lengthAdjust="spacing" textLength="53" x="438.25" y="702.7285">NodoIoT</text><line style="stroke:#181818;stroke-width:0.5;" x1="367" x2="530" y1="713" y2="713"/><text fill="#000000" font-family="sans-serif" font-size="14" lengthAdjust="spacing" textLength="72" x="372" y="731.5332">-idNodo: int</text><text fill="#000000" font-family="sans-serif" font-size="14" lengthAdjust="spacing" textLength="119" x="372" y="749.1426">-direccionIP: String</text><text fill="#000000" font-family="sans-serif" font-size="14" lengthAdjust="spacing" textLength="107" x="372" y="766.752">-estado: boolean</text><line style="stroke:#181818;stroke-width:0.5;" x1="367" x2="530" y1="773.8281" y2="773.8281"/><text fill="#000000" font-family="sans-serif" font-size="14" lengthAdjust="spacing" textLength="147" x="372" y="792.3613">+transmitirDatos(): void</text><text fill="#000000" font-family="sans-serif" font-size="14" lengthAdjust="spacing" textLength="153" x="372" y="809.9707">+validarConexion(): void</text></g><!--class Dispositivo--><g id="elem_Dispositivo"><rect codeLine="187" fill="#F1F1F1" height="382.5781" id="Dispositivo" rx="2.5" ry="2.5" style="stroke:#181818;stroke-width:0.5;" width="190" x="569.5" y="877"/><ellipse cx="626.25" cy="893" fill="#ADD1B2" rx="11" ry="11" style="stroke:#181818;stroke-width:1.0;"/><path d="M629.0156,888.875 Q629.1719,888.6563 629.3594,888.5469 Q629.5469,888.4375 629.7656,888.4375 Q630.1406,888.4375 630.375,888.6953 Q630.6094,888.9531 630.6094,889.5625 L630.6094,891.0156 Q630.6094,891.625 630.375,891.8906 Q630.1406,892.1563 629.7656,892.1563 Q629.4219,892.1563 629.2188,891.9531 Q629.0156,891.7656 628.9063,891.25 Q628.8594,890.8906 628.6719,890.7031 Q628.3438,890.3281 627.7344,890.1094 Q627.125,889.8906 626.5,889.8906 Q625.7344,889.8906 625.1016,890.2188 Q624.4688,890.5469 623.9766,891.2969 Q623.4844,892.0469 623.4844,893.0781 L623.4844,894.1719 Q623.4844,895.4063 624.375,896.2266 Q625.2656,897.0469 626.8594,897.0469 Q627.7969,897.0469 628.4531,896.7969 Q628.8438,896.6406 629.2656,896.2031 Q629.5313,895.9375 629.6797,895.8594 Q629.8281,895.7813 630.0313,895.7813 Q630.3594,895.7813 630.6172,896.0391 Q630.875,896.2969 630.875,896.6406 Q630.875,896.9844 630.5313,897.3906 Q630.0313,897.9688 629.2344,898.2969 Q628.1563,898.75 626.8594,898.75 Q625.3438,898.75 624.1406,898.125 Q623.1563,897.625 622.4688,896.5547 Q621.7813,895.4844 621.7813,894.2031 L621.7813,893.0469 Q621.7813,891.7188 622.3984,890.5703 Q623.0156,889.4219 624.1094,888.8047 Q625.2031,888.1875 626.4375,888.1875 Q627.1719,888.1875 627.8203,888.3516 Q628.4688,888.5156 629.0156,888.875 Z " fill="#000000"/><text fill="#000000" font-family="sans-serif" font-size="14" lengthAdjust="spacing" textLength="68" x="646.75" y="898.7285">Dispositivo</text><line style="stroke:#181818;stroke-width:0.5;" x1="570.5" x2="758.5" y1="909" y2="909"/><text fill="#000000" font-family="sans-serif" font-size="14" lengthAdjust="spacing" textLength="107" x="575.5" y="927.5332">-idDispositivo: int</text><text fill="#000000" font-family="sans-serif" font-size="14" lengthAdjust="spacing" textLength="98" x="575.5" y="945.1426">-nombre: String</text><text fill="#000000" font-family="sans-serif" font-size="14" lengthAdjust="spacing" textLength="73" x="575.5" y="962.752">-tipo: String</text><text fill="#000000" font-family="sans-serif" font-size="14" lengthAdjust="spacing" textLength="107" x="575.5" y="980.3613">-estado: boolean</text><text fill="#000000" font-family="sans-serif" font-size="14" lengthAdjust="spacing" textLength="152" x="575.5" y="997.9707">-consumoActual: double</text><text fill="#000000" font-family="sans-serif" font-size="14" lengthAdjust="spacing" textLength="107" x="575.5" y="1015.5801">-idDispositivo: int</text><text fill="#000000" font-family="sans-serif" font-size="14" lengthAdjust="spacing" textLength="98" x="575.5" y="1033.1895">-nombre: String</text><text fill="#000000" font-family="sans-serif" font-size="14" lengthAdjust="spacing" textLength="107" x="575.5" y="1050.7988">-idDispositivo: int</text><text fill="#000000" font-family="sans-serif" font-size="14" lengthAdjust="spacing" textLength="98" x="575.5" y="1068.4082">-nombre: String</text><text fill="#000000" font-family="sans-serif" font-size="14" lengthAdjust="spacing" textLength="152" x="575.5" y="1086.0176">-consumoActual: double</text><text fill="#000000" font-family="sans-serif" font-size="14" lengthAdjust="spacing" textLength="107" x="575.5" y="1103.627">-idDispositivo: int</text><text fill="#000000" font-family="sans-serif" font-size="14" lengthAdjust="spacing" textLength="98" x="575.5" y="1121.2363">-nombre: String</text><line style="stroke:#181818;stroke-width:0.5;" x1="570.5" x2="758.5" y1="1128.3125" y2="1128.3125"/><text fill="#000000" font-family="sans-serif" font-size="14" lengthAdjust="spacing" textLength="112" x="575.5" y="1146.8457">+encender(): void</text><text fill="#000000" font-family="sans-serif" font-size="14" lengthAdjust="spacing" textLength="97" x="575.5" y="1164.4551">+apagar(): void</text><text fill="#000000" font-family="sans-serif" font-size="14" lengthAdjust="spacing" textLength="170" x="575.5" y="1182.0645">+obtenerEstado(): boolean</text><text fill="#000000" font-family="sans-serif" font-size="14" lengthAdjust="spacing" textLength="112" x="575.5" y="1199.6738">+encender(): void</text><text fill="#000000" font-family="sans-serif" font-size="14" lengthAdjust="spacing" textLength="97" x="575.5" y="1217.2832">+apagar(): void</text><text fill="#000000" font-family="sans-serif" font-size="14" lengthAdjust="spacing" textLength="178" x="575.5" y="1234.8926">+obtenerConsumo(): double</text><text fill="#000000" font-family="sans-serif" font-size="14" lengthAdjust="spacing" textLength="135" x="575.5" y="1252.502">+enviarEvento(): void</text></g><!--class EstadoDispositivo--><g id="elem_EstadoDispositivo"><rect codeLine="74" fill="#F1F1F1" height="118.4375" id="EstadoDispositivo" rx="2.5" ry="2.5" style="stroke:#181818;stroke-width:0.5;" width="161" x="436" y="1320"/><ellipse cx="458.65" cy="1336" fill="#ADD1B2" rx="11" ry="11" style="stroke:#181818;stroke-width:1.0;"/><path d="M461.4156,1331.875 Q461.5719,1331.6563 461.7594,1331.5469 Q461.9469,1331.4375 462.1656,1331.4375 Q462.5406,1331.4375 462.775,1331.6953 Q463.0094,1331.9531 463.0094,1332.5625 L463.0094,1334.0156 Q463.0094,1334.625 462.775,1334.8906 Q462.5406,1335.1563 462.1656,1335.1563 Q461.8219,1335.1563 461.6188,1334.9531 Q461.4156,1334.7656 461.3063,1334.25 Q461.2594,1333.8906 461.0719,1333.7031 Q460.7438,1333.3281 460.1344,1333.1094 Q459.525,1332.8906 458.9,1332.8906 Q458.1344,1332.8906 457.5016,1333.2188 Q456.8688,1333.5469 456.3766,1334.2969 Q455.8844,1335.0469 455.8844,1336.0781 L455.8844,1337.1719 Q455.8844,1338.4063 456.775,1339.2266 Q457.6656,1340.0469 459.2594,1340.0469 Q460.1969,1340.0469 460.8531,1339.7969 Q461.2438,1339.6406 461.6656,1339.2031 Q461.9313,1338.9375 462.0797,1338.8594 Q462.2281,1338.7813 462.4313,1338.7813 Q462.7594,1338.7813 463.0172,1339.0391 Q463.275,1339.2969 463.275,1339.6406 Q463.275,1339.9844 462.9313,1340.3906 Q462.4313,1340.9688 461.6344,1341.2969 Q460.5563,1341.75 459.2594,1341.75 Q457.7438,1341.75 456.5406,1341.125 Q455.5563,1340.625 454.8688,1339.5547 Q454.1813,1338.4844 454.1813,1337.2031 L454.1813,1336.0469 Q454.1813,1334.7188 454.7984,1333.5703 Q455.4156,1332.4219 456.5094,1331.8047 Q457.6031,1331.1875 458.8375,1331.1875 Q459.5719,1331.1875 460.2203,1331.3516 Q460.8688,1331.5156 461.4156,1331.875 Z " fill="#000000"/><text fill="#000000" font-family="sans-serif" font-size="14" lengthAdjust="spacing" textLength="112" x="474.35" y="1341.7285">EstadoDispositivo</text><line style="stroke:#181818;stroke-width:0.5;" x1="437" x2="596" y1="1352" y2="1352"/><text fill="#000000" font-family="sans-serif" font-size="14" lengthAdjust="spacing" textLength="83" x="442" y="1370.5332">-idEstado: int</text><text fill="#000000" font-family="sans-serif" font-size="14" lengthAdjust="spacing" textLength="131" x="442" y="1388.1426">-fechaRegistro: Date</text><text fill="#000000" font-family="sans-serif" font-size="14" lengthAdjust="spacing" textLength="146" x="442" y="1405.752">-estadoActual: boolean</text><line style="stroke:#181818;stroke-width:0.5;" x1="437" x2="596" y1="1412.8281" y2="1412.8281"/><text fill="#000000" font-family="sans-serif" font-size="14" lengthAdjust="spacing" textLength="149" x="442" y="1431.3613">+registrarEstado(): void</text></g><!--class Automatizacion--><g id="elem_Automatizacion"><rect codeLine="97" fill="#F1F1F1" height="136.0469" id="Automatizacion" rx="2.5" ry="2.5" style="stroke:#181818;stroke-width:0.5;" width="146" x="873.5" y="485"/><ellipse cx="897.05" cy="501" fill="#ADD1B2" rx="11" ry="11" style="stroke:#181818;stroke-width:1.0;"/><path d="M899.8156,496.875 Q899.9719,496.6563 900.1594,496.5469 Q900.3469,496.4375 900.5656,496.4375 Q900.9406,496.4375 901.175,496.6953 Q901.4094,496.9531 901.4094,497.5625 L901.4094,499.0156 Q901.4094,499.625 901.175,499.8906 Q900.9406,500.1563 900.5656,500.1563 Q900.2219,500.1563 900.0188,499.9531 Q899.8156,499.7656 899.7063,499.25 Q899.6594,498.8906 899.4719,498.7031 Q899.1438,498.3281 898.5344,498.1094 Q897.925,497.8906 897.3,497.8906 Q896.5344,497.8906 895.9016,498.2188 Q895.2688,498.5469 894.7766,499.2969 Q894.2844,500.0469 894.2844,501.0781 L894.2844,502.1719 Q894.2844,503.4063 895.175,504.2266 Q896.0656,505.0469 897.6594,505.0469 Q898.5969,505.0469 899.2531,504.7969 Q899.6438,504.6406 900.0656,504.2031 Q900.3313,503.9375 900.4797,503.8594 Q900.6281,503.7813 900.8313,503.7813 Q901.1594,503.7813 901.4172,504.0391 Q901.675,504.2969 901.675,504.6406 Q901.675,504.9844 901.3313,505.3906 Q900.8313,505.9688 900.0344,506.2969 Q898.9563,506.75 897.6594,506.75 Q896.1438,506.75 894.9406,506.125 Q893.9563,505.625 893.2688,504.5547 Q892.5813,503.4844 892.5813,502.2031 L892.5813,501.0469 Q892.5813,499.7188 893.1984,498.5703 Q893.8156,497.4219 894.9094,496.8047 Q896.0031,496.1875 897.2375,496.1875 Q897.9719,496.1875 898.6203,496.3516 Q899.2688,496.5156 899.8156,496.875 Z " fill="#000000"/><text fill="#000000" font-family="sans-serif" font-size="14" lengthAdjust="spacing" textLength="95" x="912.95" y="506.7285">Automatizacion</text><line style="stroke:#181818;stroke-width:0.5;" x1="874.5" x2="1018.5" y1="517" y2="517"/><text fill="#000000" font-family="sans-serif" font-size="14" lengthAdjust="spacing" textLength="134" x="879.5" y="535.5332">-idAutomatizacion: int</text><text fill="#000000" font-family="sans-serif" font-size="14" lengthAdjust="spacing" textLength="98" x="879.5" y="553.1426">-nombre: String</text><text fill="#000000" font-family="sans-serif" font-size="14" lengthAdjust="spacing" textLength="107" x="879.5" y="570.752">-estado: boolean</text><line style="stroke:#181818;stroke-width:0.5;" x1="874.5" x2="1018.5" y1="577.8281" y2="577.8281"/><text fill="#000000" font-family="sans-serif" font-size="14" lengthAdjust="spacing" textLength="94" x="879.5" y="596.3613">+activar(): void</text><text fill="#000000" font-family="sans-serif" font-size="14" lengthAdjust="spacing" textLength="117" x="879.5" y="613.9707">+desactivar(): void</text></g><!--class ReglaAutomatizacion--><g id="elem_ReglaAutomatizacion"><rect codeLine="105" fill="#F1F1F1" height="118.4375" id="ReglaAutomatizacion" rx="2.5" ry="2.5" style="stroke:#181818;stroke-width:0.5;" width="164" x="869.5" y="690"/><ellipse cx="884.5" cy="706" fill="#ADD1B2" rx="11" ry="11" style="stroke:#181818;stroke-width:1.0;"/><path d="M887.2656,701.875 Q887.4219,701.6563 887.6094,701.5469 Q887.7969,701.4375 888.0156,701.4375 Q888.3906,701.4375 888.625,701.6953 Q888.8594,701.9531 888.8594,702.5625 L888.8594,704.0156 Q888.8594,704.625 888.625,704.8906 Q888.3906,705.1563 888.0156,705.1563 Q887.6719,705.1563 887.4688,704.9531 Q887.2656,704.7656 887.1563,704.25 Q887.1094,703.8906 886.9219,703.7031 Q886.5938,703.3281 885.9844,703.1094 Q885.375,702.8906 884.75,702.8906 Q883.9844,702.8906 883.3516,703.2188 Q882.7188,703.5469 882.2266,704.2969 Q881.7344,705.0469 881.7344,706.0781 L881.7344,707.1719 Q881.7344,708.4063 882.625,709.2266 Q883.5156,710.0469 885.1094,710.0469 Q886.0469,710.0469 886.7031,709.7969 Q887.0938,709.6406 887.5156,709.2031 Q887.7813,708.9375 887.9297,708.8594 Q888.0781,708.7813 888.2813,708.7813 Q888.6094,708.7813 888.8672,709.0391 Q889.125,709.2969 889.125,709.6406 Q889.125,709.9844 888.7813,710.3906 Q888.2813,710.9688 887.4844,711.2969 Q886.4063,711.75 885.1094,711.75 Q883.5938,711.75 882.3906,711.125 Q881.4063,710.625 880.7188,709.5547 Q880.0313,708.4844 880.0313,707.2031 L880.0313,706.0469 Q880.0313,704.7188 880.6484,703.5703 Q881.2656,702.4219 882.3594,701.8047 Q883.4531,701.1875 884.6875,701.1875 Q885.4219,701.1875 886.0703,701.3516 Q886.7188,701.5156 887.2656,701.875 Z " fill="#000000"/><text fill="#000000" font-family="sans-serif" font-size="14" lengthAdjust="spacing" textLength="132" x="898.5" y="711.7285">ReglaAutomatizacion</text><line style="stroke:#181818;stroke-width:0.5;" x1="870.5" x2="1032.5" y1="722" y2="722"/><text fill="#000000" font-family="sans-serif" font-size="14" lengthAdjust="spacing" textLength="76" x="875.5" y="740.5332">-idRegla: int</text><text fill="#000000" font-family="sans-serif" font-size="14" lengthAdjust="spacing" textLength="110" x="875.5" y="758.1426">-condicion: String</text><text fill="#000000" font-family="sans-serif" font-size="14" lengthAdjust="spacing" textLength="91" x="875.5" y="775.752">-accion: String</text><line style="stroke:#181818;stroke-width:0.5;" x1="870.5" x2="1032.5" y1="782.8281" y2="782.8281"/><text fill="#000000" font-family="sans-serif" font-size="14" lengthAdjust="spacing" textLength="140" x="875.5" y="801.3613">+ejecutarRegla(): void</text></g><!--class Horario--><g id="elem_Horario"><rect codeLine="112" fill="#F1F1F1" height="136.0469" id="Horario" rx="2.5" ry="2.5" style="stroke:#181818;stroke-width:0.5;" width="130" x="881.5" y="148"/><ellipse cx="919.9" cy="164" fill="#ADD1B2" rx="11" ry="11" style="stroke:#181818;stroke-width:1.0;"/><path d="M922.6656,159.875 Q922.8219,159.6563 923.0094,159.5469 Q923.1969,159.4375 923.4156,159.4375 Q923.7906,159.4375 924.025,159.6953 Q924.2594,159.9531 924.2594,160.5625 L924.2594,162.0156 Q924.2594,162.625 924.025,162.8906 Q923.7906,163.1563 923.4156,163.1563 Q923.0719,163.1563 922.8688,162.9531 Q922.6656,162.7656 922.5563,162.25 Q922.5094,161.8906 922.3219,161.7031 Q921.9938,161.3281 921.3844,161.1094 Q920.775,160.8906 920.15,160.8906 Q919.3844,160.8906 918.7516,161.2188 Q918.1188,161.5469 917.6266,162.2969 Q917.1344,163.0469 917.1344,164.0781 L917.1344,165.1719 Q917.1344,166.4063 918.025,167.2266 Q918.9156,168.0469 920.5094,168.0469 Q921.4469,168.0469 922.1031,167.7969 Q922.4938,167.6406 922.9156,167.2031 Q923.1813,166.9375 923.3297,166.8594 Q923.4781,166.7813 923.6813,166.7813 Q924.0094,166.7813 924.2672,167.0391 Q924.525,167.2969 924.525,167.6406 Q924.525,167.9844 924.1813,168.3906 Q923.6813,168.9688 922.8844,169.2969 Q921.8063,169.75 920.5094,169.75 Q918.9938,169.75 917.7906,169.125 Q916.8063,168.625 916.1188,167.5547 Q915.4313,166.4844 915.4313,165.2031 L915.4313,164.0469 Q915.4313,162.7188 916.0484,161.5703 Q916.6656,160.4219 917.7594,159.8047 Q918.8531,159.1875 920.0875,159.1875 Q920.8219,159.1875 921.4703,159.3516 Q922.1188,159.5156 922.6656,159.875 Z " fill="#000000"/><text fill="#000000" font-family="sans-serif" font-size="14" lengthAdjust="spacing" textLength="46" x="939.1" y="169.7285">Horario</text><line style="stroke:#181818;stroke-width:0.5;" x1="882.5" x2="1010.5" y1="180" y2="180"/><text fill="#000000" font-family="sans-serif" font-size="14" lengthAdjust="spacing" textLength="85" x="887.5" y="198.5332">-idHorario: int</text><text fill="#000000" font-family="sans-serif" font-size="14" lengthAdjust="spacing" textLength="105" x="887.5" y="216.1426">-horaInicio: Time</text><text fill="#000000" font-family="sans-serif" font-size="14" lengthAdjust="spacing" textLength="93" x="887.5" y="233.752">-horaFin: Time</text><text fill="#000000" font-family="sans-serif" font-size="14" lengthAdjust="spacing" textLength="116" x="887.5" y="251.3613">-frecuencia: String</text><line style="stroke:#181818;stroke-width:0.5;" x1="882.5" x2="1010.5" y1="258.4375" y2="258.4375"/><text fill="#000000" font-family="sans-serif" font-size="14" lengthAdjust="spacing" textLength="118" x="887.5" y="276.9707">+programar(): void</text></g><!--class Dashboard--><g id="elem_Dashboard"><rect codeLine="143" fill="#F1F1F1" height="118.4375" id="Dashboard" rx="2.5" ry="2.5" style="stroke:#181818;stroke-width:0.5;" width="197" x="566" y="690"/><ellipse cx="625.25" cy="706" fill="#ADD1B2" rx="11" ry="11" style="stroke:#181818;stroke-width:1.0;"/><path d="M628.0156,701.875 Q628.1719,701.6563 628.3594,701.5469 Q628.5469,701.4375 628.7656,701.4375 Q629.1406,701.4375 629.375,701.6953 Q629.6094,701.9531 629.6094,702.5625 L629.6094,704.0156 Q629.6094,704.625 629.375,704.8906 Q629.1406,705.1563 628.7656,705.1563 Q628.4219,705.1563 628.2188,704.9531 Q628.0156,704.7656 627.9063,704.25 Q627.8594,703.8906 627.6719,703.7031 Q627.3438,703.3281 626.7344,703.1094 Q626.125,702.8906 625.5,702.8906 Q624.7344,702.8906 624.1016,703.2188 Q623.4688,703.5469 622.9766,704.2969 Q622.4844,705.0469 622.4844,706.0781 L622.4844,707.1719 Q622.4844,708.4063 623.375,709.2266 Q624.2656,710.0469 625.8594,710.0469 Q626.7969,710.0469 627.4531,709.7969 Q627.8438,709.6406 628.2656,709.2031 Q628.5313,708.9375 628.6797,708.8594 Q628.8281,708.7813 629.0313,708.7813 Q629.3594,708.7813 629.6172,709.0391 Q629.875,709.2969 629.875,709.6406 Q629.875,709.9844 629.5313,710.3906 Q629.0313,710.9688 628.2344,711.2969 Q627.1563,711.75 625.8594,711.75 Q624.3438,711.75 623.1406,711.125 Q622.1563,710.625 621.4688,709.5547 Q620.7813,708.4844 620.7813,707.2031 L620.7813,706.0469 Q620.7813,704.7188 621.3984,703.5703 Q622.0156,702.4219 623.1094,701.8047 Q624.2031,701.1875 625.4375,701.1875 Q626.1719,701.1875 626.8203,701.3516 Q627.4688,701.5156 628.0156,701.875 Z " fill="#000000"/><text fill="#000000" font-family="sans-serif" font-size="14" lengthAdjust="spacing" textLength="70" x="645.75" y="711.7285">Dashboard</text><line style="stroke:#181818;stroke-width:0.5;" x1="567" x2="762" y1="722" y2="722"/><text fill="#000000" font-family="sans-serif" font-size="14" lengthAdjust="spacing" textLength="109" x="572" y="740.5332">-idDashboard: int</text><text fill="#000000" font-family="sans-serif" font-size="14" lengthAdjust="spacing" textLength="160" x="572" y="758.1426">-fechaActualizacion: Date</text><line style="stroke:#181818;stroke-width:0.5;" x1="567" x2="762" y1="765.2188" y2="765.2188"/><text fill="#000000" font-family="sans-serif" font-size="14" lengthAdjust="spacing" textLength="160" x="572" y="783.752">+mostrarConsumo(): void</text><text fill="#000000" font-family="sans-serif" font-size="14" lengthAdjust="spacing" textLength="185" x="572" y="801.3613">+visualizarDispositivos(): void</text></g><!--class ConsumoEnergetico--><g id="elem_ConsumoEnergetico"><rect codeLine="157" fill="#F1F1F1" height="118.4375" id="ConsumoEnergetico" rx="2.5" ry="2.5" style="stroke:#181818;stroke-width:0.5;" width="177" x="224" y="1320"/><ellipse cx="246.65" cy="1336" fill="#ADD1B2" rx="11" ry="11" style="stroke:#181818;stroke-width:1.0;"/><path d="M249.4156,1331.875 Q249.5719,1331.6563 249.7594,1331.5469 Q249.9469,1331.4375 250.1656,1331.4375 Q250.5406,1331.4375 250.775,1331.6953 Q251.0094,1331.9531 251.0094,1332.5625 L251.0094,1334.0156 Q251.0094,1334.625 250.775,1334.8906 Q250.5406,1335.1563 250.1656,1335.1563 Q249.8219,1335.1563 249.6188,1334.9531 Q249.4156,1334.7656 249.3063,1334.25 Q249.2594,1333.8906 249.0719,1333.7031 Q248.7438,1333.3281 248.1344,1333.1094 Q247.525,1332.8906 246.9,1332.8906 Q246.1344,1332.8906 245.5016,1333.2188 Q244.8688,1333.5469 244.3766,1334.2969 Q243.8844,1335.0469 243.8844,1336.0781 L243.8844,1337.1719 Q243.8844,1338.4063 244.775,1339.2266 Q245.6656,1340.0469 247.2594,1340.0469 Q248.1969,1340.0469 248.8531,1339.7969 Q249.2438,1339.6406 249.6656,1339.2031 Q249.9313,1338.9375 250.0797,1338.8594 Q250.2281,1338.7813 250.4313,1338.7813 Q250.7594,1338.7813 251.0172,1339.0391 Q251.275,1339.2969 251.275,1339.6406 Q251.275,1339.9844 250.9313,1340.3906 Q250.4313,1340.9688 249.6344,1341.2969 Q248.5563,1341.75 247.2594,1341.75 Q245.7438,1341.75 244.5406,1341.125 Q243.5563,1340.625 242.8688,1339.5547 Q242.1813,1338.4844 242.1813,1337.2031 L242.1813,1336.0469 Q242.1813,1334.7188 242.7984,1333.5703 Q243.4156,1332.4219 244.5094,1331.8047 Q245.6031,1331.1875 246.8375,1331.1875 Q247.5719,1331.1875 248.2203,1331.3516 Q248.8688,1331.5156 249.4156,1331.875 Z " fill="#000000"/><text fill="#000000" font-family="sans-serif" font-size="14" lengthAdjust="spacing" textLength="128" x="262.35" y="1341.7285">ConsumoEnergetico</text><line style="stroke:#181818;stroke-width:0.5;" x1="225" x2="400" y1="1352" y2="1352"/><text fill="#000000" font-family="sans-serif" font-size="14" lengthAdjust="spacing" textLength="99" x="230" y="1370.5332">-idConsumo: int</text><text fill="#000000" font-family="sans-serif" font-size="14" lengthAdjust="spacing" textLength="143" x="230" y="1388.1426">-consumoKWh: double</text><text fill="#000000" font-family="sans-serif" font-size="14" lengthAdjust="spacing" textLength="131" x="230" y="1405.752">-fechaRegistro: Date</text><line style="stroke:#181818;stroke-width:0.5;" x1="225" x2="400" y1="1412.8281" y2="1412.8281"/><text fill="#000000" font-family="sans-serif" font-size="14" lengthAdjust="spacing" textLength="165" x="230" y="1431.3613">+registrarConsumo(): void</text></g><!--class ReporteConsumo--><g id="elem_ReporteConsumo"><rect codeLine="164" fill="#F1F1F1" height="136.0469" id="ReporteConsumo" rx="2.5" ry="2.5" style="stroke:#181818;stroke-width:0.5;" width="165" x="230" y="1000.5"/><ellipse cx="254.9" cy="1016.5" fill="#ADD1B2" rx="11" ry="11" style="stroke:#181818;stroke-width:1.0;"/><path d="M257.6656,1012.375 Q257.8219,1012.1563 258.0094,1012.0469 Q258.1969,1011.9375 258.4156,1011.9375 Q258.7906,1011.9375 259.025,1012.1953 Q259.2594,1012.4531 259.2594,1013.0625 L259.2594,1014.5156 Q259.2594,1015.125 259.025,1015.3906 Q258.7906,1015.6563 258.4156,1015.6563 Q258.0719,1015.6563 257.8688,1015.4531 Q257.6656,1015.2656 257.5563,1014.75 Q257.5094,1014.3906 257.3219,1014.2031 Q256.9938,1013.8281 256.3844,1013.6094 Q255.775,1013.3906 255.15,1013.3906 Q254.3844,1013.3906 253.7516,1013.7188 Q253.1188,1014.0469 252.6266,1014.7969 Q252.1344,1015.5469 252.1344,1016.5781 L252.1344,1017.6719 Q252.1344,1018.9063 253.025,1019.7266 Q253.9156,1020.5469 255.5094,1020.5469 Q256.4469,1020.5469 257.1031,1020.2969 Q257.4938,1020.1406 257.9156,1019.7031 Q258.1813,1019.4375 258.3297,1019.3594 Q258.4781,1019.2813 258.6813,1019.2813 Q259.0094,1019.2813 259.2672,1019.5391 Q259.525,1019.7969 259.525,1020.1406 Q259.525,1020.4844 259.1813,1020.8906 Q258.6813,1021.4688 257.8844,1021.7969 Q256.8063,1022.25 255.5094,1022.25 Q253.9938,1022.25 252.7906,1021.625 Q251.8063,1021.125 251.1188,1020.0547 Q250.4313,1018.9844 250.4313,1017.7031 L250.4313,1016.5469 Q250.4313,1015.2188 251.0484,1014.0703 Q251.6656,1012.9219 252.7594,1012.3047 Q253.8531,1011.6875 255.0875,1011.6875 Q255.8219,1011.6875 256.4703,1011.8516 Q257.1188,1012.0156 257.6656,1012.375 Z " fill="#000000"/><text fill="#000000" font-family="sans-serif" font-size="14" lengthAdjust="spacing" textLength="111" x="271.1" y="1022.2285">ReporteConsumo</text><line style="stroke:#181818;stroke-width:0.5;" x1="231" x2="394" y1="1032.5" y2="1032.5"/><text fill="#000000" font-family="sans-serif" font-size="14" lengthAdjust="spacing" textLength="90" x="236" y="1051.0332">-idReporte: int</text><text fill="#000000" font-family="sans-serif" font-size="14" lengthAdjust="spacing" textLength="98" x="236" y="1068.6426">-periodo: String</text><text fill="#000000" font-family="sans-serif" font-size="14" lengthAdjust="spacing" textLength="145" x="236" y="1086.252">-consumoTotal: double</text><line style="stroke:#181818;stroke-width:0.5;" x1="231" x2="394" y1="1093.3281" y2="1093.3281"/><text fill="#000000" font-family="sans-serif" font-size="14" lengthAdjust="spacing" textLength="153" x="236" y="1111.8613">+generarReporte(): void</text><text fill="#000000" font-family="sans-serif" font-size="14" lengthAdjust="spacing" textLength="132" x="236" y="1129.4707">+exportarPDF(): void</text></g><!--class EventoSistema--><g id="elem_EventoSistema"><rect codeLine="193" fill="#F1F1F1" height="118.4375" id="EventoSistema" rx="2.5" ry="2.5" style="stroke:#181818;stroke-width:0.5;" width="161" x="632" y="1320"/><ellipse cx="662.75" cy="1336" fill="#ADD1B2" rx="11" ry="11" style="stroke:#181818;stroke-width:1.0;"/><path d="M665.5156,1331.875 Q665.6719,1331.6563 665.8594,1331.5469 Q666.0469,1331.4375 666.2656,1331.4375 Q666.6406,1331.4375 666.875,1331.6953 Q667.1094,1331.9531 667.1094,1332.5625 L667.1094,1334.0156 Q667.1094,1334.625 666.875,1334.8906 Q666.6406,1335.1563 666.2656,1335.1563 Q665.9219,1335.1563 665.7188,1334.9531 Q665.5156,1334.7656 665.4063,1334.25 Q665.3594,1333.8906 665.1719,1333.7031 Q664.8438,1333.3281 664.2344,1333.1094 Q663.625,1332.8906 663,1332.8906 Q662.2344,1332.8906 661.6016,1333.2188 Q660.9688,1333.5469 660.4766,1334.2969 Q659.9844,1335.0469 659.9844,1336.0781 L659.9844,1337.1719 Q659.9844,1338.4063 660.875,1339.2266 Q661.7656,1340.0469 663.3594,1340.0469 Q664.2969,1340.0469 664.9531,1339.7969 Q665.3438,1339.6406 665.7656,1339.2031 Q666.0313,1338.9375 666.1797,1338.8594 Q666.3281,1338.7813 666.5313,1338.7813 Q666.8594,1338.7813 667.1172,1339.0391 Q667.375,1339.2969 667.375,1339.6406 Q667.375,1339.9844 667.0313,1340.3906 Q666.5313,1340.9688 665.7344,1341.2969 Q664.6563,1341.75 663.3594,1341.75 Q661.8438,1341.75 660.6406,1341.125 Q659.6563,1340.625 658.9688,1339.5547 Q658.2813,1338.4844 658.2813,1337.2031 L658.2813,1336.0469 Q658.2813,1334.7188 658.8984,1333.5703 Q659.5156,1332.4219 660.6094,1331.8047 Q661.7031,1331.1875 662.9375,1331.1875 Q663.6719,1331.1875 664.3203,1331.3516 Q664.9688,1331.5156 665.5156,1331.875 Z " fill="#000000"/><text fill="#000000" font-family="sans-serif" font-size="14" lengthAdjust="spacing" textLength="94" x="680.25" y="1341.7285">EventoSistema</text><line style="stroke:#181818;stroke-width:0.5;" x1="633" x2="792" y1="1352" y2="1352"/><text fill="#000000" font-family="sans-serif" font-size="14" lengthAdjust="spacing" textLength="83" x="638" y="1370.5332">-idEvento: int</text><text fill="#000000" font-family="sans-serif" font-size="14" lengthAdjust="spacing" textLength="117" x="638" y="1388.1426">-tipoEvento: String</text><text fill="#000000" font-family="sans-serif" font-size="14" lengthAdjust="spacing" textLength="122" x="638" y="1405.752">-fechaEvento: Date</text><line style="stroke:#181818;stroke-width:0.5;" x1="633" x2="792" y1="1412.8281" y2="1412.8281"/><text fill="#000000" font-family="sans-serif" font-size="14" lengthAdjust="spacing" textLength="149" x="638" y="1431.3613">+registrarEvento(): void</text></g><!--class Alerta--><g id="elem_Alerta"><rect codeLine="200" fill="#F1F1F1" height="118.4375" id="Alerta" rx="2.5" ry="2.5" style="stroke:#181818;stroke-width:0.5;" width="151" x="358" y="1498"/><ellipse cx="410.75" cy="1514" fill="#ADD1B2" rx="11" ry="11" style="stroke:#181818;stroke-width:1.0;"/><path d="M413.5156,1509.875 Q413.6719,1509.6563 413.8594,1509.5469 Q414.0469,1509.4375 414.2656,1509.4375 Q414.6406,1509.4375 414.875,1509.6953 Q415.1094,1509.9531 415.1094,1510.5625 L415.1094,1512.0156 Q415.1094,1512.625 414.875,1512.8906 Q414.6406,1513.1563 414.2656,1513.1563 Q413.9219,1513.1563 413.7188,1512.9531 Q413.5156,1512.7656 413.4063,1512.25 Q413.3594,1511.8906 413.1719,1511.7031 Q412.8438,1511.3281 412.2344,1511.1094 Q411.625,1510.8906 411,1510.8906 Q410.2344,1510.8906 409.6016,1511.2188 Q408.9688,1511.5469 408.4766,1512.2969 Q407.9844,1513.0469 407.9844,1514.0781 L407.9844,1515.1719 Q407.9844,1516.4063 408.875,1517.2266 Q409.7656,1518.0469 411.3594,1518.0469 Q412.2969,1518.0469 412.9531,1517.7969 Q413.3438,1517.6406 413.7656,1517.2031 Q414.0313,1516.9375 414.1797,1516.8594 Q414.3281,1516.7813 414.5313,1516.7813 Q414.8594,1516.7813 415.1172,1517.0391 Q415.375,1517.2969 415.375,1517.6406 Q415.375,1517.9844 415.0313,1518.3906 Q414.5313,1518.9688 413.7344,1519.2969 Q412.6563,1519.75 411.3594,1519.75 Q409.8438,1519.75 408.6406,1519.125 Q407.6563,1518.625 406.9688,1517.5547 Q406.2813,1516.4844 406.2813,1515.2031 L406.2813,1514.0469 Q406.2813,1512.7188 406.8984,1511.5703 Q407.5156,1510.4219 408.6094,1509.8047 Q409.7031,1509.1875 410.9375,1509.1875 Q411.6719,1509.1875 412.3203,1509.3516 Q412.9688,1509.5156 413.5156,1509.875 Z " fill="#000000"/><text fill="#000000" font-family="sans-serif" font-size="14" lengthAdjust="spacing" textLength="37" x="431.25" y="1519.7285">Alerta</text><line style="stroke:#181818;stroke-width:0.5;" x1="359" x2="508" y1="1530" y2="1530"/><text fill="#000000" font-family="sans-serif" font-size="14" lengthAdjust="spacing" textLength="76" x="364" y="1548.5332">-idAlerta: int</text><text fill="#000000" font-family="sans-serif" font-size="14" lengthAdjust="spacing" textLength="103" x="364" y="1566.1426">-mensaje: String</text><text fill="#000000" font-family="sans-serif" font-size="14" lengthAdjust="spacing" textLength="136" x="364" y="1583.752">-nivelPrioridad: String</text><line style="stroke:#181818;stroke-width:0.5;" x1="359" x2="508" y1="1590.8281" y2="1590.8281"/><text fill="#000000" font-family="sans-serif" font-size="14" lengthAdjust="spacing" textLength="139" x="364" y="1609.3613">+generarAlerta(): void</text></g><!--class Notificacion--><g id="elem_Notificacion"><rect codeLine="207" fill="#F1F1F1" height="136.0469" id="Notificacion" rx="2.5" ry="2.5" style="stroke:#181818;stroke-width:0.5;" width="167" x="7" y="1676"/><ellipse cx="50.35" cy="1692" fill="#ADD1B2" rx="11" ry="11" style="stroke:#181818;stroke-width:1.0;"/><path d="M53.1156,1687.875 Q53.2719,1687.6563 53.4594,1687.5469 Q53.6469,1687.4375 53.8656,1687.4375 Q54.2406,1687.4375 54.475,1687.6953 Q54.7094,1687.9531 54.7094,1688.5625 L54.7094,1690.0156 Q54.7094,1690.625 54.475,1690.8906 Q54.2406,1691.1563 53.8656,1691.1563 Q53.5219,1691.1563 53.3188,1690.9531 Q53.1156,1690.7656 53.0063,1690.25 Q52.9594,1689.8906 52.7719,1689.7031 Q52.4438,1689.3281 51.8344,1689.1094 Q51.225,1688.8906 50.6,1688.8906 Q49.8344,1688.8906 49.2016,1689.2188 Q48.5688,1689.5469 48.0766,1690.2969 Q47.5844,1691.0469 47.5844,1692.0781 L47.5844,1693.1719 Q47.5844,1694.4063 48.475,1695.2266 Q49.3656,1696.0469 50.9594,1696.0469 Q51.8969,1696.0469 52.5531,1695.7969 Q52.9438,1695.6406 53.3656,1695.2031 Q53.6313,1694.9375 53.7797,1694.8594 Q53.9281,1694.7813 54.1313,1694.7813 Q54.4594,1694.7813 54.7172,1695.0391 Q54.975,1695.2969 54.975,1695.6406 Q54.975,1695.9844 54.6313,1696.3906 Q54.1313,1696.9688 53.3344,1697.2969 Q52.2563,1697.75 50.9594,1697.75 Q49.4438,1697.75 48.2406,1697.125 Q47.2563,1696.625 46.5688,1695.5547 Q45.8813,1694.4844 45.8813,1693.2031 L45.8813,1692.0469 Q45.8813,1690.7188 46.4984,1689.5703 Q47.1156,1688.4219 48.2094,1687.8047 Q49.3031,1687.1875 50.5375,1687.1875 Q51.2719,1687.1875 51.9203,1687.3516 Q52.5688,1687.5156 53.1156,1687.875 Z " fill="#000000"/><text fill="#000000" font-family="sans-serif" font-size="14" lengthAdjust="spacing" textLength="72" x="70.65" y="1697.7285">Notificacion</text><line style="stroke:#181818;stroke-width:0.5;" x1="8" x2="173" y1="1708" y2="1708"/><text fill="#000000" font-family="sans-serif" font-size="14" lengthAdjust="spacing" textLength="111" x="13" y="1726.5332">-idNotificacion: int</text><text fill="#000000" font-family="sans-serif" font-size="14" lengthAdjust="spacing" textLength="112" x="13" y="1744.1426">-contenido: String</text><text fill="#000000" font-family="sans-serif" font-size="14" lengthAdjust="spacing" textLength="155" x="13" y="1761.752">-estadoLectura: boolean</text><line style="stroke:#181818;stroke-width:0.5;" x1="8" x2="173" y1="1768.8281" y2="1768.8281"/><text fill="#000000" font-family="sans-serif" font-size="14" lengthAdjust="spacing" textLength="91" x="13" y="1787.3613">+enviar(): void</text><text fill="#000000" font-family="sans-serif" font-size="14" lengthAdjust="spacing" textLength="131" x="13" y="1804.9707">+marcarLeida(): void</text></g><!--reverse link Usuario to Administrador--><g id="link_Usuario_Administrador"><path codeLine="32" d="M245.17,443.11 C245.17,468.09 245.17,473.79 245.17,493.85 " fill="none" id="Usuario-backto-Administrador" style="stroke:#181818;stroke-width:1.0;"/><polygon fill="none" points="245.17,425.11,239.17,443.11,251.17,443.11,245.17,425.11" style="stroke:#181818;stroke-width:1.0;"/></g><!--link Administrador to Usuario--><g id="link_Administrador_Usuario"><path codeLine="35" d="M230.83,493.91 C230.83,473.81 230.83,456.04 230.83,431.01 " fill="none" id="Administrador-to-Usuario" style="stroke:#181818;stroke-width:1.0;"/><polygon fill="#181818" points="230.83,425.01,226.83,434.01,230.83,430.01,234.83,434.01,230.83,425.01" style="stroke:#181818;stroke-width:1.0;"/><text fill="#000000" font-family="sans-serif" font-size="13" lengthAdjust="spacing" textLength="54" x="175.83" y="455.9551">supervisa</text><text fill="#000000" font-family="sans-serif" font-size="13" lengthAdjust="spacing" textLength="7" x="230.878" y="483.2233">1</text><text fill="#000000" font-family="sans-serif" font-size="13" lengthAdjust="spacing" textLength="20" x="207.5356" y="446.3139">0..*</text></g><!--link Usuario to Sesion--><g id="link_Usuario_Sesion"><path codeLine="34" d="M408.84,378 C505.3,378 639.5,378 639.5,378 C639.5,378 639.5,429.7 639.5,478.84 " fill="none" id="Usuario-to-Sesion" style="stroke:#181818;stroke-width:1.0;"/><polygon fill="#181818" points="639.5,484.84,643.5,475.84,639.5,479.84,635.5,475.84,639.5,484.84" style="stroke:#181818;stroke-width:1.0;"/><text fill="#000000" font-family="sans-serif" font-size="13" lengthAdjust="spacing" textLength="39" x="537.59" y="374.4951">genera</text><text fill="#000000" font-family="sans-serif" font-size="13" lengthAdjust="spacing" textLength="7" x="416.484" y="387.307">1</text><text fill="#000000" font-family="sans-serif" font-size="13" lengthAdjust="spacing" textLength="20" x="618.4063" y="474.0218">0..*</text></g><!--link Usuario to Dispositivo--><g id="link_Usuario_Dispositivo"><path codeLine="81" d="M330.17,425.12 C330.17,638.65 330.17,939 330.17,939 C330.17,939 464.32,939 563.14,939 " fill="none" id="Usuario-to-Dispositivo" style="stroke:#181818;stroke-width:1.0;"/><polygon fill="#181818" points="569.14,939,560.14,935,564.14,939,560.14,943,569.14,939" style="stroke:#181818;stroke-width:1.0;"/><text fill="#000000" font-family="sans-serif" font-size="13" lengthAdjust="spacing" textLength="46" x="283.17" y="798.0451">controla</text><text fill="#000000" font-family="sans-serif" font-size="13" lengthAdjust="spacing" textLength="7" x="323.6792" y="446.4278">1</text><text fill="#000000" font-family="sans-serif" font-size="13" lengthAdjust="spacing" textLength="20" x="541.4026" y="926.4259">0..*</text></g><!--link Gateway to NodoIoT--><g id="link_Gateway_NodoIoT"><path codeLine="82" d="M448.5,621 C448.5,640.35 448.5,655.43 448.5,674.79 " fill="none" id="Gateway-to-NodoIoT" style="stroke:#181818;stroke-width:1.0;"/><polygon fill="#181818" points="448.5,680.79,452.5,671.79,448.5,675.79,444.5,671.79,448.5,680.79" style="stroke:#181818;stroke-width:1.0;"/><text fill="#000000" font-family="sans-serif" font-size="13" lengthAdjust="spacing" textLength="60" x="449.5" y="647.3851">administra</text><text fill="#000000" font-family="sans-serif" font-size="13" lengthAdjust="spacing" textLength="7" x="440.5203" y="642.3483">1</text><text fill="#000000" font-family="sans-serif" font-size="13" lengthAdjust="spacing" textLength="20" x="427.4063" y="669.9663">1..*</text></g><!--link NodoIoT to Dispositivo--><g id="link_NodoIoT_Dispositivo"><path codeLine="83" d="M531.23,813 C580.23,813 632.83,813 632.83,813 C632.83,813 632.83,834.18 632.83,870.81 " fill="none" id="NodoIoT-to-Dispositivo" style="stroke:#181818;stroke-width:1.0;"/><polygon fill="#181818" points="632.83,876.81,636.83,867.81,632.83,871.81,628.83,867.81,632.83,876.81" style="stroke:#181818;stroke-width:1.0;"/><text fill="#000000" font-family="sans-serif" font-size="13" lengthAdjust="spacing" textLength="59" x="553.94" y="827.4951">sincroniza</text><text fill="#000000" font-family="sans-serif" font-size="13" lengthAdjust="spacing" textLength="7" x="538.9099" y="815.4962">1</text><text fill="#000000" font-family="sans-serif" font-size="13" lengthAdjust="spacing" textLength="20" x="611.072" y="865.897">1..*</text></g><!--link Dispositivo to EstadoDispositivo--><g id="link_Dispositivo_EstadoDispositivo"><path codeLine="84" d="M583.25,1260.28 C583.25,1281.69 583.25,1296.11 583.25,1313.79 " fill="none" id="Dispositivo-to-EstadoDispositivo" style="stroke:#181818;stroke-width:1.0;"/><polygon fill="#181818" points="583.25,1319.79,587.25,1310.79,583.25,1314.79,579.25,1310.79,583.25,1319.79" style="stroke:#181818;stroke-width:1.0;"/><text fill="#000000" font-family="sans-serif" font-size="13" lengthAdjust="spacing" textLength="43" x="584.25" y="1286.5351">registra</text><text fill="#000000" font-family="sans-serif" font-size="13" lengthAdjust="spacing" textLength="7" x="573.2043" y="1280.9686">1</text><text fill="#000000" font-family="sans-serif" font-size="13" lengthAdjust="spacing" textLength="20" x="570.1664" y="1309.0887">0..*</text></g><!--link Usuario to Automatizacion--><g id="link_Usuario_Automatizacion"><path codeLine="127" d="M408.66,331 C569.95,331 877.5,331 877.5,331 C877.5,331 877.5,413.63 877.5,478.88 " fill="none" id="Usuario-to-Automatizacion" style="stroke:#181818;stroke-width:1.0;"/><polygon fill="#181818" points="877.5,484.88,881.5,475.88,877.5,479.88,873.5,475.88,877.5,484.88" style="stroke:#181818;stroke-width:1.0;"/><text fill="#000000" font-family="sans-serif" font-size="13" lengthAdjust="spacing" textLength="25" x="694.02" y="327.4951">crea</text><text fill="#000000" font-family="sans-serif" font-size="13" lengthAdjust="spacing" textLength="7" x="416.6017" y="337.0438">1</text><text fill="#000000" font-family="sans-serif" font-size="13" lengthAdjust="spacing" textLength="20" x="848.8594" y="474.0662">0..*</text></g><!--link Automatizacion to ReglaAutomatizacion--><g id="link_Automatizacion_ReglaAutomatizacion"><path codeLine="128" d="M946.5,621 C946.5,643.45 946.5,662.21 946.5,683.94 " fill="none" id="Automatizacion-to-ReglaAutomatizacion" style="stroke:#181818;stroke-width:1.0;"/><polygon fill="#181818" points="946.5,689.94,950.5,680.94,946.5,684.94,942.5,680.94,946.5,689.94" style="stroke:#181818;stroke-width:1.0;"/><text fill="#000000" font-family="sans-serif" font-size="13" lengthAdjust="spacing" textLength="49" x="896.5" y="651.9651">contiene</text><text fill="#000000" font-family="sans-serif" font-size="13" lengthAdjust="spacing" textLength="7" x="939.1391" y="642.3483">1</text><text fill="#000000" font-family="sans-serif" font-size="13" lengthAdjust="spacing" textLength="20" x="924.6719" y="679.2569">1..*</text></g><!--link ReglaAutomatizacion to Dispositivo--><g id="link_ReglaAutomatizacion_Dispositivo"><path codeLine="129" d="M951.5,808.07 C951.5,900.53 951.5,1069 951.5,1069 C951.5,1069 849.21,1069 765.67,1069 " fill="none" id="ReglaAutomatizacion-to-Dispositivo" style="stroke:#181818;stroke-width:1.0;"/><polygon fill="#181818" points="759.67,1069,768.67,1073,764.67,1069,768.67,1065,759.67,1069" style="stroke:#181818;stroke-width:1.0;"/><text fill="#000000" font-family="sans-serif" font-size="13" lengthAdjust="spacing" textLength="46" x="904.5" y="1030.9451">controla</text><text fill="#000000" font-family="sans-serif" font-size="13" lengthAdjust="spacing" textLength="7" x="944.0734" y="829.734">1</text><text fill="#000000" font-family="sans-serif" font-size="13" lengthAdjust="spacing" textLength="20" x="767.3934" y="1065.9727">1..*</text></g><!--link Horario to Automatizacion--><g id="link_Horario_Automatizacion"><path codeLine="130" d="M946.5,284.2 C946.5,342.66 946.5,420.47 946.5,478.9 " fill="none" id="Horario-to-Automatizacion" style="stroke:#181818;stroke-width:1.0;"/><polygon fill="#181818" points="946.5,484.9,950.5,475.9,946.5,479.9,942.5,475.9,946.5,484.9" style="stroke:#181818;stroke-width:1.0;"/><text fill="#000000" font-family="sans-serif" font-size="13" lengthAdjust="spacing" textLength="54" x="891.5" y="381.0451">programa</text><text fill="#000000" font-family="sans-serif" font-size="13" lengthAdjust="spacing" textLength="7" x="939.1391" y="305.569">1</text><text fill="#000000" font-family="sans-serif" font-size="13" lengthAdjust="spacing" textLength="20" x="925.4063" y="474.0883">0..*</text></g><!--link Dashboard to Dispositivo--><g id="link_Dashboard_Dispositivo"><path codeLine="172" d="M696.17,808.35 C696.17,828.47 696.17,846.16 696.17,870.92 " fill="none" id="Dashboard-to-Dispositivo" style="stroke:#181818;stroke-width:1.0;"/><polygon fill="#181818" points="696.17,876.92,700.17,867.92,696.17,871.92,692.17,867.92,696.17,876.92" style="stroke:#181818;stroke-width:1.0;"/><text fill="#000000" font-family="sans-serif" font-size="13" lengthAdjust="spacing" textLength="57" x="638.17" y="839.1251">monitorea</text><text fill="#000000" font-family="sans-serif" font-size="13" lengthAdjust="spacing" textLength="7" x="692.6032" y="830.0482">1</text><text fill="#000000" font-family="sans-serif" font-size="13" lengthAdjust="spacing" textLength="20" x="677.0842" y="866.0117">1..*</text></g><!--link Dispositivo to ConsumoEnergetico--><g id="link_Dispositivo_ConsumoEnergetico"><path codeLine="173" d="M569.33,1199 C473.58,1199 340,1199 340,1199 C340,1199 340,1261.13 340,1313.56 " fill="none" id="Dispositivo-to-ConsumoEnergetico" style="stroke:#181818;stroke-width:1.0;"/><polygon fill="#181818" points="340,1319.56,344,1310.56,340,1314.56,336,1310.56,340,1319.56" style="stroke:#181818;stroke-width:1.0;"/><text fill="#000000" font-family="sans-serif" font-size="13" lengthAdjust="spacing" textLength="39" x="354.38" y="1195.4951">genera</text><text fill="#000000" font-family="sans-serif" font-size="13" lengthAdjust="spacing" textLength="7" x="554.4672" y="1206.2877">1</text><text fill="#000000" font-family="sans-serif" font-size="13" lengthAdjust="spacing" textLength="20" x="322.0234" y="1309.2524">0..*</text></g><!--link Usuario to ReporteConsumo--><g id="link_Usuario_ReporteConsumo"><path codeLine="174" d="M294.83,425.09 C294.83,612.67 294.83,870.79 294.83,994.09 " fill="none" id="Usuario-to-ReporteConsumo" style="stroke:#181818;stroke-width:1.0;"/><polygon fill="#181818" points="294.83,1000.09,298.83,991.09,294.83,995.09,290.83,991.09,294.83,1000.09" style="stroke:#181818;stroke-width:1.0;"/><text fill="#000000" font-family="sans-serif" font-size="13" lengthAdjust="spacing" textLength="49" x="244.83" y="709.0851">consulta</text><text fill="#000000" font-family="sans-serif" font-size="13" lengthAdjust="spacing" textLength="7" x="287.0692" y="446.3968">1</text><text fill="#000000" font-family="sans-serif" font-size="13" lengthAdjust="spacing" textLength="20" x="271.9765" y="989.721">0..*</text></g><!--link ReporteConsumo to ConsumoEnergetico--><g id="link_ReporteConsumo_ConsumoEnergetico"><path codeLine="175" d="M285,1136.64 C285,1191.45 285,1261.66 285,1313.91 " fill="none" id="ReporteConsumo-to-ConsumoEnergetico" style="stroke:#181818;stroke-width:1.0;"/><polygon fill="#181818" points="285,1319.91,289,1310.91,285,1314.91,281,1310.91,285,1319.91" style="stroke:#181818;stroke-width:1.0;"/><text fill="#000000" font-family="sans-serif" font-size="13" lengthAdjust="spacing" textLength="41" x="243" y="1224.7751">analiza</text><text fill="#000000" font-family="sans-serif" font-size="13" lengthAdjust="spacing" textLength="7" x="274.8031" y="1158.0028">1</text><text fill="#000000" font-family="sans-serif" font-size="13" lengthAdjust="spacing" textLength="20" x="260.4297" y="1309.2233">1..*</text></g><!--link Dispositivo to EventoSistema--><g id="link_Dispositivo_EventoSistema"><path codeLine="215" d="M695.75,1260.28 C695.75,1281.69 695.75,1296.11 695.75,1313.79 " fill="none" id="Dispositivo-to-EventoSistema" style="stroke:#181818;stroke-width:1.0;"/><polygon fill="#181818" points="695.75,1319.79,699.75,1310.79,695.75,1314.79,691.75,1310.79,695.75,1319.79" style="stroke:#181818;stroke-width:1.0;"/><text fill="#000000" font-family="sans-serif" font-size="13" lengthAdjust="spacing" textLength="39" x="696.75" y="1286.5351">genera</text><text fill="#000000" font-family="sans-serif" font-size="13" lengthAdjust="spacing" textLength="7" x="689.7473" y="1280.9686">1</text><text fill="#000000" font-family="sans-serif" font-size="13" lengthAdjust="spacing" textLength="20" x="672.4898" y="1309.0887">0..*</text></g><!--link EventoSistema to Alerta--><g id="link_EventoSistema_Alerta"><path codeLine="216" d="M712.5,1438.27 C712.5,1490.05 712.5,1557 712.5,1557 C712.5,1557 597.63,1557 515,1557 " fill="none" id="EventoSistema-to-Alerta" style="stroke:#181818;stroke-width:1.0;"/><polygon fill="#181818" points="509,1557,518,1561,514,1557,518,1553,509,1557" style="stroke:#181818;stroke-width:1.0;"/><text fill="#000000" font-family="sans-serif" font-size="13" lengthAdjust="spacing" textLength="46" x="623.11" y="1553.4951">produce</text><text fill="#000000" font-family="sans-serif" font-size="13" lengthAdjust="spacing" textLength="7" x="705.0734" y="1459.9584">1</text><text fill="#000000" font-family="sans-serif" font-size="13" lengthAdjust="spacing" textLength="20" x="516.882" y="1553.7537">0..*</text></g><!--link Alerta to Notificacion--><g id="link_Alerta_Notificacion"><path codeLine="217" d="M357.67,1557 C266.84,1557 126.75,1557 126.75,1557 C126.75,1557 126.75,1616.49 126.75,1669.96 " fill="none" id="Alerta-to-Notificacion" style="stroke:#181818;stroke-width:1.0;"/><polygon fill="#181818" points="126.75,1675.96,130.75,1666.96,126.75,1670.96,122.75,1666.96,126.75,1675.96" style="stroke:#181818;stroke-width:1.0;"/><text fill="#000000" font-family="sans-serif" font-size="13" lengthAdjust="spacing" textLength="56" x="125.73" y="1553.4951">comunica</text><text fill="#000000" font-family="sans-serif" font-size="13" lengthAdjust="spacing" textLength="7" x="343.1089" y="1553.7285">1</text><text fill="#000000" font-family="sans-serif" font-size="13" lengthAdjust="spacing" textLength="20" x="109.6211" y="1665.1549">1..*</text></g><!--link Usuario to Notificacion--><g id="link_Usuario_Notificacion"><path codeLine="218" d="M216.43,216 C139.11,216 43.25,216 43.25,216 C43.25,216 43.25,1373.36 43.25,1669.88 " fill="none" id="Usuario-to-Notificacion" style="stroke:#181818;stroke-width:1.0;"/><polygon fill="#181818" points="43.25,1675.88,47.25,1666.88,43.25,1670.88,39.25,1666.88,43.25,1675.88" style="stroke:#181818;stroke-width:1.0;"/><text fill="#000000" font-family="sans-serif" font-size="13" lengthAdjust="spacing" textLength="35" x="7.25" y="855.8451">recibe</text><text fill="#000000" font-family="sans-serif" font-size="13" lengthAdjust="spacing" textLength="7" x="201.4955" y="212.8797">1</text><text fill="#000000" font-family="sans-serif" font-size="13" lengthAdjust="spacing" textLength="20" x="16.9883" y="1665.0662">0..*</text></g><!--SRC=[pLVRRjms47tNLn1-QcjiaBmAHO55xBH6Wy2eNVIPIytkJYgH2vBQNDf-LB-XFzOH9LubhOCYGFrcpT2SCsVc36VDxoXFNFEEYPORixLMuwwtS2UKVC3Fm5vM9XmnHzwe3oWFRCzR0ucdHGdsqmcOqlQegifTndurFTUes1yLOnk6JSrGMlUtLDrEGyqUA9myE1Dq7DlCGX2ivWR- -PjdTeidDLsTsA_fSXJ8zGCOLFARRsksKwe5BfrJWDQfxwom6Hr35DLoVOFcf0nQFAlim1afLekVwGGtnvtYkWd-ltogswQZy8RmDafF2KiyGxiL0epocLyp3GTtJF_8BNpWd_9G5ATPHsBw4sY2GtdG7KJO7CUOO61y_8oyxq4S-Tt04q6w8GGZzSOIx9olYSmi_XxbI4GQrnVv-pytcvo6wBjwTSKscn_OrSiNBxwxyY1hTW09cbSvUSLXVqSTqw-Iplj_s_Q9zWbbcOeThfo-uytz3WKNhbQf9bnXNYi97vqhQsYo2bjKoA0KMicoHYE8TwfHT-enW1Y-8u86DOW1mTtz0eOyDbLAcevo9KbOPPPws8EUmqY82b0IsyKXCKZ_2NHkRfY-KrjXIRSrQrI_Qy5X0ob0Df1pna_yKD2eTdRep5jtUJf9GXAZQocLsmbH9hbVHjNFHUT1fko64H7Zbs8hD9BYg4DBLhxhmkbNxhJlWvhn8BpA6ukp-SsnlQhKKQ2PSrE7dAfdfLqDN6zxgpfkAIUnsAwvFroSco-_R0iAueA8ARgk0LEQ0mfge9QlG76-Y81eR70sIhWeJAI6zo1wcY3k_-SXVr8wetBwZe6EPF1loIDs48nlK2QMFSsLdfI7F8j-qkf0TLnAzhzFY2-J-BgG2ePhro9LOIqaibIQKOH8GwHQSbyKMP2lBy1J63sJrJDx5qtVkkuwqIrW5ihirwbOP6yfnkSu9OFMfXbwpJhbvkJhSU2lRMsHNVDrNwFrXsPwG19WapF4dLotTEe05aMCFdaoGG-6dtyx9Z7M7fRa-IXfIOQ9AydaJ-Q8CyV0j6wXsn7cEJygMwGyxdA-t5ajuEDWu_h-vaqA9jR_eXuwUd2i6dHuuSsPqncsonMf5oJKeMEhmbE0Muh4nxtuEUcFXYxkKBzJ5lVJQlcr1-sPVX_Sda7QXHORxTFFbBWREMkyTbZdl2tfCTVPtZxlwxMOsnQeo-8BxJvZi0wauUzp1RkVQFT4ggQTjSdoc_fvl6LfcOx49XjrD6RwfMc0pTBc-fPs-5xpV3aOgSqaHE-auFej4CnCGXUsiAm2GGsvkNnQHWRTazBq0gh9C5iWazm7uNGzhG6hIYkEkyw4wby0]--></g></svg>